<mxfile modified="2021-06-27T17:26:25.680Z" host="app.diagrams.net" agent="5.0 (Macintosh; Intel Mac OS X 10_15_7) AppleWebKit/537.36 (KHTML, like Gecko) Chrome/91.0.4472.114 Safari/537.36" etag="dEj4itXt-MNmZoafC_xA" version="14.8.0" type="github" pages="3">
  <diagram name="OneUser" id="97a40813-6b03-0c74-37c1-0168de264b11">
    <mxGraphModel dx="1630" dy="2015" grid="1" gridSize="10" guides="1" tooltips="1" connect="1" arrows="1" fold="1" page="1" pageScale="1" pageWidth="827" pageHeight="1169" background="#ffffff" math="0" shadow="0">
      <root>
        <mxCell id="0" />
        <mxCell id="1" parent="0" />
        <mxCell id="rCOu83mCMeQFBXOZdZDN-1" value="View V1" style="rounded=0;whiteSpace=wrap;html=1;fontColor=#333333;sketch=1;fillStyle=solid;fontStyle=1;fillColor=#E6FFCC;strokeColor=#66FF66;" vertex="1" parent="1">
          <mxGeometry x="90" y="-830" width="120" height="60" as="geometry" />
        </mxCell>
        <mxCell id="eb6h9zsl7ZSxZ8_8SUMh-1" value="" style="rounded=1;whiteSpace=wrap;html=1;fillColor=none;" vertex="1" parent="1">
          <mxGeometry x="80" y="-930" width="140" height="180" as="geometry" />
        </mxCell>
        <mxCell id="eb6h9zsl7ZSxZ8_8SUMh-2" value="Model M1" style="rounded=0;whiteSpace=wrap;html=1;fillColor=#f8cecc;strokeColor=#b85450;sketch=1;fillStyle=zigzag;fontColor=#990000;fontStyle=1" vertex="1" parent="1">
          <mxGeometry x="90" y="-910" width="120" height="60" as="geometry" />
        </mxCell>
        <mxCell id="eb6h9zsl7ZSxZ8_8SUMh-4" value="Client C1" style="text;html=1;strokeColor=none;fillColor=none;align=center;verticalAlign=middle;whiteSpace=wrap;rounded=0;fontStyle=1" vertex="1" parent="1">
          <mxGeometry x="115" y="-750" width="70" height="20" as="geometry" />
        </mxCell>
        <mxCell id="eb6h9zsl7ZSxZ8_8SUMh-5" value="Session XYZ" style="text;html=1;align=center;verticalAlign=middle;whiteSpace=wrap;rounded=0;sketch=1;fontSize=14;fillColor=#ffffff;fontStyle=1" vertex="1" parent="1">
          <mxGeometry x="120" y="-940" width="90" height="20" as="geometry" />
        </mxCell>
        <mxCell id="eb6h9zsl7ZSxZ8_8SUMh-6" value="" style="outlineConnect=0;dashed=0;verticalLabelPosition=bottom;verticalAlign=top;align=center;html=1;fontSize=12;fontStyle=0;aspect=fixed;pointerEvents=1;shape=mxgraph.aws4.user;sketch=0;fillColor=#333333;strokeWidth=1;" vertex="1" parent="1">
          <mxGeometry x="131" y="-730" width="38" height="38" as="geometry" />
        </mxCell>
        <mxCell id="eb6h9zsl7ZSxZ8_8SUMh-8" value="Reflector" style="ellipse;shape=cloud;whiteSpace=wrap;html=1;sketch=1;fontSize=21;strokeColor=#6c8ebf;fillColor=#CCFFFF;fontColor=#0066CC;" vertex="1" parent="1">
          <mxGeometry x="310" y="-920" width="326" height="130" as="geometry" />
        </mxCell>
        <mxCell id="eb6h9zsl7ZSxZ8_8SUMh-12" value="Dice" style="rounded=1;whiteSpace=wrap;html=1;fontSize=10;" vertex="1" parent="1">
          <mxGeometry x="97" y="-785" width="43" height="11" as="geometry" />
        </mxCell>
        <mxCell id="cnqclEh_YvkNT2m2kDRQ-1" style="rounded=0;orthogonalLoop=1;jettySize=auto;html=1;entryX=0.13;entryY=0.77;entryDx=0;entryDy=0;entryPerimeter=0;fontColor=#990000;startArrow=classic;startFill=1;" edge="1" parent="1">
          <mxGeometry relative="1" as="geometry">
            <mxPoint x="210" y="-805.8997924696116" as="sourcePoint" />
            <mxPoint x="352.3800000000001" y="-819.9" as="targetPoint" />
          </mxGeometry>
        </mxCell>
        <mxCell id="cnqclEh_YvkNT2m2kDRQ-2" style="edgeStyle=none;rounded=0;orthogonalLoop=1;jettySize=auto;html=1;entryX=1;entryY=0.5;entryDx=0;entryDy=0;fontSize=12;fontColor=#000000;exitX=0.07;exitY=0.4;exitDx=0;exitDy=0;exitPerimeter=0;startArrow=classic;startFill=1;" edge="1" parent="1">
          <mxGeometry relative="1" as="geometry">
            <mxPoint x="332.81999999999994" y="-868" as="sourcePoint" />
            <mxPoint x="210" y="-880" as="targetPoint" />
          </mxGeometry>
        </mxCell>
        <mxCell id="cnqclEh_YvkNT2m2kDRQ-3" value="publish(&quot;rollDice&quot;)" style="text;html=1;strokeColor=none;fillColor=none;align=center;verticalAlign=middle;whiteSpace=wrap;rounded=0;sketch=1;fontSize=12;rotation=354.5;" vertex="1" parent="1">
          <mxGeometry x="230" y="-814" width="106" height="20" as="geometry" />
        </mxCell>
        <mxCell id="cnqclEh_YvkNT2m2kDRQ-4" value="subscribe(&quot;rollDice&quot;)" style="text;html=1;strokeColor=none;fillColor=none;align=center;verticalAlign=middle;whiteSpace=wrap;rounded=0;sketch=1;fontSize=12;rotation=6;" vertex="1" parent="1">
          <mxGeometry x="230" y="-893" width="106" height="20" as="geometry" />
        </mxCell>
        <mxCell id="cnqclEh_YvkNT2m2kDRQ-5" value="subscribe(&quot;showDice&quot;)" style="text;html=1;strokeColor=none;fillColor=none;align=center;verticalAlign=middle;whiteSpace=wrap;rounded=0;sketch=1;fontSize=12;rotation=354.5;" vertex="1" parent="1">
          <mxGeometry x="230" y="-833" width="106" height="20" as="geometry" />
        </mxCell>
        <mxCell id="cnqclEh_YvkNT2m2kDRQ-6" value="publish(&quot;showDice&quot;)" style="text;html=1;strokeColor=none;fillColor=none;align=center;verticalAlign=middle;whiteSpace=wrap;rounded=0;sketch=1;fontSize=12;rotation=5.5;" vertex="1" parent="1">
          <mxGeometry x="225" y="-873" width="106" height="20" as="geometry" />
        </mxCell>
      </root>
    </mxGraphModel>
  </diagram>
  <diagram id="b8vIMIFmO1B61nfMZWEe" name="TwoUser">
    <mxGraphModel dx="1630" dy="2015" grid="1" gridSize="10" guides="1" tooltips="1" connect="1" arrows="1" fold="1" page="1" pageScale="1" pageWidth="827" pageHeight="1169" math="0" shadow="0">
      <root>
        <mxCell id="kRkSpV8htrOmqJ0Lwaou-0" />
        <mxCell id="kRkSpV8htrOmqJ0Lwaou-1" parent="kRkSpV8htrOmqJ0Lwaou-0" />
        <mxCell id="kRkSpV8htrOmqJ0Lwaou-10" value="Reflector" style="ellipse;shape=cloud;whiteSpace=wrap;html=1;sketch=1;fontSize=21;strokeColor=#6c8ebf;fillColor=#CCFFFF;fontColor=#0066CC;" vertex="1" parent="kRkSpV8htrOmqJ0Lwaou-1">
          <mxGeometry x="310" y="-920" width="326" height="130" as="geometry" />
        </mxCell>
        <mxCell id="q8pMrcIjqKUu6REJiKCV-0" value="View V1" style="rounded=0;whiteSpace=wrap;html=1;fontColor=#333333;sketch=1;fillStyle=solid;fontStyle=1;fillColor=#E6FFCC;strokeColor=#66FF66;" vertex="1" parent="kRkSpV8htrOmqJ0Lwaou-1">
          <mxGeometry x="90" y="-830" width="120" height="60" as="geometry" />
        </mxCell>
        <mxCell id="q8pMrcIjqKUu6REJiKCV-1" value="" style="rounded=1;whiteSpace=wrap;html=1;fillColor=none;" vertex="1" parent="kRkSpV8htrOmqJ0Lwaou-1">
          <mxGeometry x="80" y="-930" width="140" height="180" as="geometry" />
        </mxCell>
        <mxCell id="q8pMrcIjqKUu6REJiKCV-2" value="Model M1" style="rounded=0;whiteSpace=wrap;html=1;fillColor=#f8cecc;strokeColor=#b85450;sketch=1;fillStyle=zigzag;fontColor=#990000;fontStyle=1" vertex="1" parent="kRkSpV8htrOmqJ0Lwaou-1">
          <mxGeometry x="90" y="-910" width="120" height="60" as="geometry" />
        </mxCell>
        <mxCell id="q8pMrcIjqKUu6REJiKCV-3" value="Client C1" style="text;html=1;strokeColor=none;fillColor=none;align=center;verticalAlign=middle;whiteSpace=wrap;rounded=0;fontStyle=1" vertex="1" parent="kRkSpV8htrOmqJ0Lwaou-1">
          <mxGeometry x="115" y="-750" width="70" height="20" as="geometry" />
        </mxCell>
        <mxCell id="q8pMrcIjqKUu6REJiKCV-4" value="Session XYZ" style="text;html=1;align=center;verticalAlign=middle;whiteSpace=wrap;rounded=0;sketch=1;fontSize=14;fillColor=#ffffff;fontStyle=1" vertex="1" parent="kRkSpV8htrOmqJ0Lwaou-1">
          <mxGeometry x="120" y="-940" width="90" height="20" as="geometry" />
        </mxCell>
        <mxCell id="q8pMrcIjqKUu6REJiKCV-5" value="" style="outlineConnect=0;dashed=0;verticalLabelPosition=bottom;verticalAlign=top;align=center;html=1;fontSize=12;fontStyle=0;aspect=fixed;pointerEvents=1;shape=mxgraph.aws4.user;sketch=0;fillColor=#333333;strokeWidth=1;" vertex="1" parent="kRkSpV8htrOmqJ0Lwaou-1">
          <mxGeometry x="131" y="-730" width="38" height="38" as="geometry" />
        </mxCell>
        <mxCell id="q8pMrcIjqKUu6REJiKCV-6" value="Dice" style="rounded=1;whiteSpace=wrap;html=1;fontSize=10;" vertex="1" parent="kRkSpV8htrOmqJ0Lwaou-1">
          <mxGeometry x="97" y="-785" width="43" height="11" as="geometry" />
        </mxCell>
        <mxCell id="q8pMrcIjqKUu6REJiKCV-7" style="rounded=0;orthogonalLoop=1;jettySize=auto;html=1;entryX=0.13;entryY=0.77;entryDx=0;entryDy=0;entryPerimeter=0;fontColor=#990000;startArrow=classic;startFill=1;" edge="1" parent="kRkSpV8htrOmqJ0Lwaou-1">
          <mxGeometry relative="1" as="geometry">
            <mxPoint x="210" y="-805.8997924696116" as="sourcePoint" />
            <mxPoint x="352.3800000000001" y="-819.9" as="targetPoint" />
          </mxGeometry>
        </mxCell>
        <mxCell id="q8pMrcIjqKUu6REJiKCV-8" style="edgeStyle=none;rounded=0;orthogonalLoop=1;jettySize=auto;html=1;entryX=1;entryY=0.5;entryDx=0;entryDy=0;fontSize=12;fontColor=#000000;exitX=0.07;exitY=0.4;exitDx=0;exitDy=0;exitPerimeter=0;startArrow=classic;startFill=1;" edge="1" parent="kRkSpV8htrOmqJ0Lwaou-1">
          <mxGeometry relative="1" as="geometry">
            <mxPoint x="332.81999999999994" y="-868" as="sourcePoint" />
            <mxPoint x="210" y="-880" as="targetPoint" />
          </mxGeometry>
        </mxCell>
        <mxCell id="q8pMrcIjqKUu6REJiKCV-9" value="publish(&quot;rollDice&quot;)" style="text;html=1;strokeColor=none;fillColor=none;align=center;verticalAlign=middle;whiteSpace=wrap;rounded=0;sketch=1;fontSize=12;rotation=354.5;" vertex="1" parent="kRkSpV8htrOmqJ0Lwaou-1">
          <mxGeometry x="230" y="-814" width="106" height="20" as="geometry" />
        </mxCell>
        <mxCell id="q8pMrcIjqKUu6REJiKCV-10" value="subscribe(&quot;rollDice&quot;)" style="text;html=1;strokeColor=none;fillColor=none;align=center;verticalAlign=middle;whiteSpace=wrap;rounded=0;sketch=1;fontSize=12;rotation=6;" vertex="1" parent="kRkSpV8htrOmqJ0Lwaou-1">
          <mxGeometry x="230" y="-893" width="106" height="20" as="geometry" />
        </mxCell>
        <mxCell id="q8pMrcIjqKUu6REJiKCV-11" value="subscribe(&quot;showDice&quot;)" style="text;html=1;strokeColor=none;fillColor=none;align=center;verticalAlign=middle;whiteSpace=wrap;rounded=0;sketch=1;fontSize=12;rotation=354.5;" vertex="1" parent="kRkSpV8htrOmqJ0Lwaou-1">
          <mxGeometry x="230" y="-833" width="106" height="20" as="geometry" />
        </mxCell>
        <mxCell id="q8pMrcIjqKUu6REJiKCV-12" value="publish(&quot;showDice&quot;)" style="text;html=1;strokeColor=none;fillColor=none;align=center;verticalAlign=middle;whiteSpace=wrap;rounded=0;sketch=1;fontSize=12;rotation=5.5;" vertex="1" parent="kRkSpV8htrOmqJ0Lwaou-1">
          <mxGeometry x="225" y="-873" width="106" height="20" as="geometry" />
        </mxCell>
        <mxCell id="5tCrudYg5i15BIkG7ZkC-0" value="" style="rounded=1;whiteSpace=wrap;html=1;fillColor=none;" vertex="1" parent="kRkSpV8htrOmqJ0Lwaou-1">
          <mxGeometry x="670" y="-750" width="140" height="180" as="geometry" />
        </mxCell>
        <mxCell id="5tCrudYg5i15BIkG7ZkC-1" value="View V2" style="rounded=0;whiteSpace=wrap;html=1;fontColor=#333333;sketch=1;fillStyle=solid;fontStyle=1;strokeColor=#6666FF;fillColor=#CCCCFF;" vertex="1" parent="kRkSpV8htrOmqJ0Lwaou-1">
          <mxGeometry x="680" y="-650" width="120" height="60" as="geometry" />
        </mxCell>
        <mxCell id="5tCrudYg5i15BIkG7ZkC-2" style="edgeStyle=none;rounded=0;orthogonalLoop=1;jettySize=auto;html=1;entryX=0;entryY=0.5;entryDx=0;entryDy=0;fontSize=12;fontColor=#000000;exitX=0.8;exitY=0.8;exitDx=0;exitDy=0;exitPerimeter=0;startArrow=classic;startFill=1;" edge="1" parent="kRkSpV8htrOmqJ0Lwaou-1" target="5tCrudYg5i15BIkG7ZkC-3">
          <mxGeometry relative="1" as="geometry">
            <mxPoint x="570.8" y="-816" as="sourcePoint" />
          </mxGeometry>
        </mxCell>
        <mxCell id="5tCrudYg5i15BIkG7ZkC-3" value="Model M1" style="rounded=0;whiteSpace=wrap;html=1;fillColor=#f8cecc;strokeColor=#b85450;sketch=1;fillStyle=zigzag;fontColor=#990000;fontStyle=1" vertex="1" parent="kRkSpV8htrOmqJ0Lwaou-1">
          <mxGeometry x="680" y="-730" width="120" height="60" as="geometry" />
        </mxCell>
        <mxCell id="5tCrudYg5i15BIkG7ZkC-4" style="edgeStyle=none;rounded=0;orthogonalLoop=1;jettySize=auto;html=1;fontSize=12;fontColor=#000000;exitX=0;exitY=0.5;exitDx=0;exitDy=0;entryX=0.55;entryY=0.95;entryDx=0;entryDy=0;entryPerimeter=0;startArrow=classic;startFill=1;" edge="1" parent="kRkSpV8htrOmqJ0Lwaou-1" source="5tCrudYg5i15BIkG7ZkC-1">
          <mxGeometry relative="1" as="geometry">
            <mxPoint x="600" y="-610" as="sourcePoint" />
            <mxPoint x="489.29999999999995" y="-796.5" as="targetPoint" />
          </mxGeometry>
        </mxCell>
        <mxCell id="5tCrudYg5i15BIkG7ZkC-5" value="Client C2" style="text;html=1;strokeColor=none;fillColor=none;align=center;verticalAlign=middle;whiteSpace=wrap;rounded=0;fontStyle=1" vertex="1" parent="kRkSpV8htrOmqJ0Lwaou-1">
          <mxGeometry x="705" y="-570" width="70" height="20" as="geometry" />
        </mxCell>
        <mxCell id="5tCrudYg5i15BIkG7ZkC-6" value="Session XYZ" style="text;html=1;align=center;verticalAlign=middle;whiteSpace=wrap;rounded=0;sketch=1;fontSize=14;fillColor=#ffffff;fontStyle=1" vertex="1" parent="kRkSpV8htrOmqJ0Lwaou-1">
          <mxGeometry x="710" y="-760" width="90" height="20" as="geometry" />
        </mxCell>
        <mxCell id="5tCrudYg5i15BIkG7ZkC-7" value="" style="outlineConnect=0;dashed=0;verticalLabelPosition=bottom;verticalAlign=top;align=center;html=1;fontSize=12;fontStyle=0;aspect=fixed;pointerEvents=1;shape=mxgraph.aws4.user;sketch=0;fillColor=#333333;strokeWidth=1;" vertex="1" parent="kRkSpV8htrOmqJ0Lwaou-1">
          <mxGeometry x="721" y="-550" width="38" height="38" as="geometry" />
        </mxCell>
        <mxCell id="5tCrudYg5i15BIkG7ZkC-8" value="Dice" style="rounded=1;whiteSpace=wrap;html=1;fontSize=10;" vertex="1" parent="kRkSpV8htrOmqJ0Lwaou-1">
          <mxGeometry x="687" y="-605" width="43" height="11" as="geometry" />
        </mxCell>
        <mxCell id="5tCrudYg5i15BIkG7ZkC-9" value="publish(&quot;rollDice&quot;)" style="text;html=1;strokeColor=none;fillColor=none;align=center;verticalAlign=middle;whiteSpace=wrap;rounded=0;sketch=1;fontSize=12;rotation=43;" vertex="1" parent="kRkSpV8htrOmqJ0Lwaou-1">
          <mxGeometry x="514" y="-721" width="106" height="20" as="geometry" />
        </mxCell>
        <mxCell id="5tCrudYg5i15BIkG7ZkC-10" value="subscribe(&quot;rollDice&quot;)" style="text;html=1;strokeColor=none;fillColor=none;align=center;verticalAlign=middle;whiteSpace=wrap;rounded=0;sketch=1;fontSize=12;rotation=46.5;" vertex="1" parent="kRkSpV8htrOmqJ0Lwaou-1">
          <mxGeometry x="580" y="-775" width="106" height="20" as="geometry" />
        </mxCell>
        <mxCell id="5tCrudYg5i15BIkG7ZkC-11" value="publish(&quot;showDice&quot;)" style="text;html=1;strokeColor=none;fillColor=none;align=center;verticalAlign=middle;whiteSpace=wrap;rounded=0;sketch=1;fontSize=12;rotation=46.5;" vertex="1" parent="kRkSpV8htrOmqJ0Lwaou-1">
          <mxGeometry x="563" y="-763" width="106" height="20" as="geometry" />
        </mxCell>
        <mxCell id="5tCrudYg5i15BIkG7ZkC-12" style="edgeStyle=none;rounded=0;orthogonalLoop=1;jettySize=auto;html=1;exitX=0.5;exitY=1;exitDx=0;exitDy=0;fontSize=12;fontColor=#000000;" edge="1" parent="kRkSpV8htrOmqJ0Lwaou-1" source="5tCrudYg5i15BIkG7ZkC-11" target="5tCrudYg5i15BIkG7ZkC-11">
          <mxGeometry relative="1" as="geometry" />
        </mxCell>
        <mxCell id="5tCrudYg5i15BIkG7ZkC-13" value="subscribe(&quot;showDice&quot;)" style="text;html=1;strokeColor=none;fillColor=none;align=center;verticalAlign=middle;whiteSpace=wrap;rounded=0;sketch=1;fontSize=12;rotation=43;" vertex="1" parent="kRkSpV8htrOmqJ0Lwaou-1">
          <mxGeometry x="525" y="-738" width="106" height="20" as="geometry" />
        </mxCell>
      </root>
    </mxGraphModel>
  </diagram>
  <diagram id="_kSCRppz6yD_IMeNCGzz" name="ThreeUser">
    <mxGraphModel dx="1630" dy="2015" grid="1" gridSize="10" guides="1" tooltips="1" connect="1" arrows="1" fold="1" page="1" pageScale="1" pageWidth="827" pageHeight="1169" math="0" shadow="0">
      <root>
        <mxCell id="LzuZ1PIDdem3-XbEVqTo-0" />
        <mxCell id="LzuZ1PIDdem3-XbEVqTo-1" parent="LzuZ1PIDdem3-XbEVqTo-0" />
        <mxCell id="gHbECOiaBvYUoMbClOFy-13" value="" style="rounded=1;whiteSpace=wrap;html=1;fillColor=none;" vertex="1" parent="LzuZ1PIDdem3-XbEVqTo-1">
          <mxGeometry x="670" y="-750" width="140" height="180" as="geometry" />
        </mxCell>
        <mxCell id="0fL6lewK9nFk7UYiVHVi-0" value="View V2" style="rounded=0;whiteSpace=wrap;html=1;fontColor=#333333;sketch=1;fillStyle=solid;fontStyle=1;strokeColor=#6666FF;fillColor=#CCCCFF;" vertex="1" parent="LzuZ1PIDdem3-XbEVqTo-1">
          <mxGeometry x="680" y="-650" width="120" height="60" as="geometry" />
        </mxCell>
        <mxCell id="_OsWBQApf9C-XUSudnHE-1" value="View V1" style="rounded=0;whiteSpace=wrap;html=1;fontColor=#333333;sketch=1;fillStyle=solid;fontStyle=1;fillColor=#E6FFCC;strokeColor=#66FF66;" vertex="1" parent="LzuZ1PIDdem3-XbEVqTo-1">
          <mxGeometry x="90" y="-830" width="120" height="60" as="geometry" />
        </mxCell>
        <mxCell id="gHbECOiaBvYUoMbClOFy-0" value="" style="rounded=1;whiteSpace=wrap;html=1;fillColor=none;" vertex="1" parent="LzuZ1PIDdem3-XbEVqTo-1">
          <mxGeometry x="80" y="-930" width="140" height="180" as="geometry" />
        </mxCell>
        <mxCell id="gHbECOiaBvYUoMbClOFy-1" value="Model M1" style="rounded=0;whiteSpace=wrap;html=1;fillColor=#f8cecc;strokeColor=#b85450;sketch=1;fillStyle=zigzag;fontColor=#990000;fontStyle=1" vertex="1" parent="LzuZ1PIDdem3-XbEVqTo-1">
          <mxGeometry x="90" y="-910" width="120" height="60" as="geometry" />
        </mxCell>
        <mxCell id="gHbECOiaBvYUoMbClOFy-2" style="rounded=0;orthogonalLoop=1;jettySize=auto;html=1;entryX=0.13;entryY=0.77;entryDx=0;entryDy=0;entryPerimeter=0;fontColor=#990000;startArrow=classic;startFill=1;" edge="1" parent="LzuZ1PIDdem3-XbEVqTo-1" target="gHbECOiaBvYUoMbClOFy-9">
          <mxGeometry relative="1" as="geometry">
            <mxPoint x="210" y="-805.8997924696116" as="sourcePoint" />
          </mxGeometry>
        </mxCell>
        <mxCell id="gHbECOiaBvYUoMbClOFy-4" value="Client C1" style="text;html=1;strokeColor=none;fillColor=none;align=center;verticalAlign=middle;whiteSpace=wrap;rounded=0;fontStyle=1" vertex="1" parent="LzuZ1PIDdem3-XbEVqTo-1">
          <mxGeometry x="115" y="-750" width="70" height="20" as="geometry" />
        </mxCell>
        <mxCell id="gHbECOiaBvYUoMbClOFy-5" value="Session XYZ" style="text;html=1;align=center;verticalAlign=middle;whiteSpace=wrap;rounded=0;sketch=1;fontSize=14;fillColor=#ffffff;fontStyle=1" vertex="1" parent="LzuZ1PIDdem3-XbEVqTo-1">
          <mxGeometry x="120" y="-940" width="90" height="20" as="geometry" />
        </mxCell>
        <mxCell id="gHbECOiaBvYUoMbClOFy-6" value="" style="outlineConnect=0;dashed=0;verticalLabelPosition=bottom;verticalAlign=top;align=center;html=1;fontSize=12;fontStyle=0;aspect=fixed;pointerEvents=1;shape=mxgraph.aws4.user;sketch=0;fillColor=#333333;strokeWidth=1;" vertex="1" parent="LzuZ1PIDdem3-XbEVqTo-1">
          <mxGeometry x="131" y="-730" width="38" height="38" as="geometry" />
        </mxCell>
        <mxCell id="gHbECOiaBvYUoMbClOFy-7" style="edgeStyle=none;rounded=0;orthogonalLoop=1;jettySize=auto;html=1;entryX=1;entryY=0.5;entryDx=0;entryDy=0;fontSize=12;fontColor=#000000;exitX=0.07;exitY=0.4;exitDx=0;exitDy=0;exitPerimeter=0;startArrow=classic;startFill=1;" edge="1" parent="LzuZ1PIDdem3-XbEVqTo-1" source="gHbECOiaBvYUoMbClOFy-9" target="gHbECOiaBvYUoMbClOFy-1">
          <mxGeometry relative="1" as="geometry" />
        </mxCell>
        <mxCell id="gHbECOiaBvYUoMbClOFy-8" style="edgeStyle=none;rounded=0;orthogonalLoop=1;jettySize=auto;html=1;entryX=0;entryY=0.5;entryDx=0;entryDy=0;fontSize=12;fontColor=#000000;exitX=0.8;exitY=0.8;exitDx=0;exitDy=0;exitPerimeter=0;startArrow=classic;startFill=1;" edge="1" parent="LzuZ1PIDdem3-XbEVqTo-1" source="gHbECOiaBvYUoMbClOFy-9" target="gHbECOiaBvYUoMbClOFy-14">
          <mxGeometry relative="1" as="geometry" />
        </mxCell>
        <mxCell id="gHbECOiaBvYUoMbClOFy-34" style="edgeStyle=none;rounded=0;orthogonalLoop=1;jettySize=auto;html=1;entryX=0;entryY=0.5;entryDx=0;entryDy=0;fontSize=12;fontColor=#000000;startArrow=classic;startFill=1;" edge="1" parent="LzuZ1PIDdem3-XbEVqTo-1" target="gHbECOiaBvYUoMbClOFy-24">
          <mxGeometry relative="1" as="geometry">
            <mxPoint x="430" y="-910" as="sourcePoint" />
          </mxGeometry>
        </mxCell>
        <mxCell id="gHbECOiaBvYUoMbClOFy-9" value="Reflector" style="ellipse;shape=cloud;whiteSpace=wrap;html=1;sketch=1;fontSize=21;strokeColor=#6c8ebf;fillColor=#CCFFFF;fontColor=#0066CC;" vertex="1" parent="LzuZ1PIDdem3-XbEVqTo-1">
          <mxGeometry x="310" y="-920" width="326" height="130" as="geometry" />
        </mxCell>
        <mxCell id="gHbECOiaBvYUoMbClOFy-10" value="Dice" style="rounded=1;whiteSpace=wrap;html=1;fontSize=10;" vertex="1" parent="LzuZ1PIDdem3-XbEVqTo-1">
          <mxGeometry x="97" y="-785" width="43" height="11" as="geometry" />
        </mxCell>
        <mxCell id="gHbECOiaBvYUoMbClOFy-11" value="publish(&quot;rollDice&quot;)" style="text;html=1;strokeColor=none;fillColor=none;align=center;verticalAlign=middle;whiteSpace=wrap;rounded=0;sketch=1;fontSize=12;rotation=354.5;" vertex="1" parent="LzuZ1PIDdem3-XbEVqTo-1">
          <mxGeometry x="230" y="-814" width="106" height="20" as="geometry" />
        </mxCell>
        <mxCell id="gHbECOiaBvYUoMbClOFy-12" value="subscribe(&quot;rollDice&quot;)" style="text;html=1;strokeColor=none;fillColor=none;align=center;verticalAlign=middle;whiteSpace=wrap;rounded=0;sketch=1;fontSize=12;rotation=6;" vertex="1" parent="LzuZ1PIDdem3-XbEVqTo-1">
          <mxGeometry x="230" y="-893" width="106" height="20" as="geometry" />
        </mxCell>
        <mxCell id="gHbECOiaBvYUoMbClOFy-14" value="Model M1" style="rounded=0;whiteSpace=wrap;html=1;fillColor=#f8cecc;strokeColor=#b85450;sketch=1;fillStyle=zigzag;fontColor=#990000;fontStyle=1" vertex="1" parent="LzuZ1PIDdem3-XbEVqTo-1">
          <mxGeometry x="680" y="-730" width="120" height="60" as="geometry" />
        </mxCell>
        <mxCell id="gHbECOiaBvYUoMbClOFy-15" style="edgeStyle=none;rounded=0;orthogonalLoop=1;jettySize=auto;html=1;fontSize=12;fontColor=#000000;exitX=0;exitY=0.5;exitDx=0;exitDy=0;entryX=0.55;entryY=0.95;entryDx=0;entryDy=0;entryPerimeter=0;startArrow=classic;startFill=1;" edge="1" parent="LzuZ1PIDdem3-XbEVqTo-1" source="0fL6lewK9nFk7UYiVHVi-0" target="gHbECOiaBvYUoMbClOFy-9">
          <mxGeometry relative="1" as="geometry">
            <mxPoint x="600" y="-610" as="sourcePoint" />
          </mxGeometry>
        </mxCell>
        <mxCell id="gHbECOiaBvYUoMbClOFy-17" value="Client C2" style="text;html=1;strokeColor=none;fillColor=none;align=center;verticalAlign=middle;whiteSpace=wrap;rounded=0;fontStyle=1" vertex="1" parent="LzuZ1PIDdem3-XbEVqTo-1">
          <mxGeometry x="705" y="-570" width="70" height="20" as="geometry" />
        </mxCell>
        <mxCell id="gHbECOiaBvYUoMbClOFy-18" value="Session XYZ" style="text;html=1;align=center;verticalAlign=middle;whiteSpace=wrap;rounded=0;sketch=1;fontSize=14;fillColor=#ffffff;fontStyle=1" vertex="1" parent="LzuZ1PIDdem3-XbEVqTo-1">
          <mxGeometry x="710" y="-760" width="90" height="20" as="geometry" />
        </mxCell>
        <mxCell id="gHbECOiaBvYUoMbClOFy-19" value="" style="outlineConnect=0;dashed=0;verticalLabelPosition=bottom;verticalAlign=top;align=center;html=1;fontSize=12;fontStyle=0;aspect=fixed;pointerEvents=1;shape=mxgraph.aws4.user;sketch=0;fillColor=#333333;strokeWidth=1;" vertex="1" parent="LzuZ1PIDdem3-XbEVqTo-1">
          <mxGeometry x="721" y="-550" width="38" height="38" as="geometry" />
        </mxCell>
        <mxCell id="gHbECOiaBvYUoMbClOFy-20" value="Dice" style="rounded=1;whiteSpace=wrap;html=1;fontSize=10;" vertex="1" parent="LzuZ1PIDdem3-XbEVqTo-1">
          <mxGeometry x="687" y="-605" width="43" height="11" as="geometry" />
        </mxCell>
        <mxCell id="gHbECOiaBvYUoMbClOFy-21" value="publish(&quot;rollDice&quot;)" style="text;html=1;strokeColor=none;fillColor=none;align=center;verticalAlign=middle;whiteSpace=wrap;rounded=0;sketch=1;fontSize=12;rotation=43;" vertex="1" parent="LzuZ1PIDdem3-XbEVqTo-1">
          <mxGeometry x="514" y="-721" width="106" height="20" as="geometry" />
        </mxCell>
        <mxCell id="gHbECOiaBvYUoMbClOFy-22" value="subscribe(&quot;rollDice&quot;)" style="text;html=1;strokeColor=none;fillColor=none;align=center;verticalAlign=middle;whiteSpace=wrap;rounded=0;sketch=1;fontSize=12;rotation=46.5;" vertex="1" parent="LzuZ1PIDdem3-XbEVqTo-1">
          <mxGeometry x="580" y="-775" width="106" height="20" as="geometry" />
        </mxCell>
        <mxCell id="gHbECOiaBvYUoMbClOFy-23" value="" style="rounded=1;whiteSpace=wrap;html=1;fillColor=none;" vertex="1" parent="LzuZ1PIDdem3-XbEVqTo-1">
          <mxGeometry x="580" y="-1139" width="140" height="180" as="geometry" />
        </mxCell>
        <mxCell id="gHbECOiaBvYUoMbClOFy-24" value="Model M1" style="rounded=0;whiteSpace=wrap;html=1;fillColor=#f8cecc;strokeColor=#b85450;sketch=1;fillStyle=zigzag;fontColor=#990000;fontStyle=1" vertex="1" parent="LzuZ1PIDdem3-XbEVqTo-1">
          <mxGeometry x="590" y="-1119" width="120" height="60" as="geometry" />
        </mxCell>
        <mxCell id="gHbECOiaBvYUoMbClOFy-30" style="edgeStyle=none;rounded=0;orthogonalLoop=1;jettySize=auto;html=1;entryX=0.625;entryY=0.2;entryDx=0;entryDy=0;entryPerimeter=0;fontSize=12;fontColor=#000000;exitX=0;exitY=0.5;exitDx=0;exitDy=0;startArrow=classic;startFill=1;" edge="1" parent="LzuZ1PIDdem3-XbEVqTo-1" source="gHbECOiaBvYUoMbClOFy-25" target="gHbECOiaBvYUoMbClOFy-9">
          <mxGeometry relative="1" as="geometry">
            <mxPoint x="533.75" y="-893" as="targetPoint" />
          </mxGeometry>
        </mxCell>
        <mxCell id="gHbECOiaBvYUoMbClOFy-25" value="View V3" style="rounded=0;whiteSpace=wrap;html=1;fontColor=#333333;sketch=1;fillStyle=solid;fontStyle=1;strokeColor=#CC0066;fillColor=#FFCCE6;" vertex="1" parent="LzuZ1PIDdem3-XbEVqTo-1">
          <mxGeometry x="590" y="-1039" width="120" height="60" as="geometry" />
        </mxCell>
        <mxCell id="gHbECOiaBvYUoMbClOFy-26" value="Client C3" style="text;html=1;strokeColor=none;fillColor=none;align=center;verticalAlign=middle;whiteSpace=wrap;rounded=0;fontStyle=1" vertex="1" parent="LzuZ1PIDdem3-XbEVqTo-1">
          <mxGeometry x="615" y="-959" width="70" height="20" as="geometry" />
        </mxCell>
        <mxCell id="gHbECOiaBvYUoMbClOFy-27" value="Session XYZ" style="text;html=1;align=center;verticalAlign=middle;whiteSpace=wrap;rounded=0;sketch=1;fontSize=14;fillColor=#ffffff;fontStyle=1" vertex="1" parent="LzuZ1PIDdem3-XbEVqTo-1">
          <mxGeometry x="620" y="-1149" width="90" height="20" as="geometry" />
        </mxCell>
        <mxCell id="gHbECOiaBvYUoMbClOFy-28" value="" style="outlineConnect=0;dashed=0;verticalLabelPosition=bottom;verticalAlign=top;align=center;html=1;fontSize=12;fontStyle=0;aspect=fixed;pointerEvents=1;shape=mxgraph.aws4.user;sketch=0;fillColor=#333333;strokeWidth=1;" vertex="1" parent="LzuZ1PIDdem3-XbEVqTo-1">
          <mxGeometry x="631" y="-939" width="38" height="38" as="geometry" />
        </mxCell>
        <mxCell id="gHbECOiaBvYUoMbClOFy-29" value="Dice" style="rounded=1;whiteSpace=wrap;html=1;fontSize=10;" vertex="1" parent="LzuZ1PIDdem3-XbEVqTo-1">
          <mxGeometry x="597" y="-994" width="43" height="11" as="geometry" />
        </mxCell>
        <mxCell id="gHbECOiaBvYUoMbClOFy-31" value="publish(&quot;rollDice&quot;)" style="text;html=1;strokeColor=none;fillColor=none;align=center;verticalAlign=middle;whiteSpace=wrap;rounded=0;sketch=1;fontSize=12;rotation=304;" vertex="1" parent="LzuZ1PIDdem3-XbEVqTo-1">
          <mxGeometry x="503" y="-950" width="106" height="20" as="geometry" />
        </mxCell>
        <mxCell id="gHbECOiaBvYUoMbClOFy-35" value="subscribe(&quot;rollDice&quot;)" style="text;html=1;strokeColor=none;fillColor=none;align=center;verticalAlign=middle;whiteSpace=wrap;rounded=0;sketch=1;fontSize=12;rotation=312;" vertex="1" parent="LzuZ1PIDdem3-XbEVqTo-1">
          <mxGeometry x="440" y="-1006" width="106" height="20" as="geometry" />
        </mxCell>
        <mxCell id="6jyc6iHdtC4MqVC9G_Dt-0" value="subscribe(&quot;showDice&quot;)" style="text;html=1;strokeColor=none;fillColor=none;align=center;verticalAlign=middle;whiteSpace=wrap;rounded=0;sketch=1;fontSize=12;rotation=354.5;" vertex="1" parent="LzuZ1PIDdem3-XbEVqTo-1">
          <mxGeometry x="230" y="-833" width="106" height="20" as="geometry" />
        </mxCell>
        <mxCell id="6jyc6iHdtC4MqVC9G_Dt-1" value="publish(&quot;showDice&quot;)" style="text;html=1;strokeColor=none;fillColor=none;align=center;verticalAlign=middle;whiteSpace=wrap;rounded=0;sketch=1;fontSize=12;rotation=5.5;" vertex="1" parent="LzuZ1PIDdem3-XbEVqTo-1">
          <mxGeometry x="225" y="-873" width="106" height="20" as="geometry" />
        </mxCell>
        <mxCell id="6jyc6iHdtC4MqVC9G_Dt-3" value="publish(&quot;showDice&quot;)" style="text;html=1;strokeColor=none;fillColor=none;align=center;verticalAlign=middle;whiteSpace=wrap;rounded=0;sketch=1;fontSize=12;rotation=311;" vertex="1" parent="LzuZ1PIDdem3-XbEVqTo-1">
          <mxGeometry x="461" y="-999" width="106" height="20" as="geometry" />
        </mxCell>
        <mxCell id="6jyc6iHdtC4MqVC9G_Dt-4" value="publish(&quot;showDice&quot;)" style="text;html=1;strokeColor=none;fillColor=none;align=center;verticalAlign=middle;whiteSpace=wrap;rounded=0;sketch=1;fontSize=12;rotation=46.5;" vertex="1" parent="LzuZ1PIDdem3-XbEVqTo-1">
          <mxGeometry x="563" y="-763" width="106" height="20" as="geometry" />
        </mxCell>
        <mxCell id="6jyc6iHdtC4MqVC9G_Dt-7" style="edgeStyle=none;rounded=0;orthogonalLoop=1;jettySize=auto;html=1;exitX=0.5;exitY=1;exitDx=0;exitDy=0;fontSize=12;fontColor=#000000;" edge="1" parent="LzuZ1PIDdem3-XbEVqTo-1" source="6jyc6iHdtC4MqVC9G_Dt-4" target="6jyc6iHdtC4MqVC9G_Dt-4">
          <mxGeometry relative="1" as="geometry" />
        </mxCell>
        <mxCell id="6jyc6iHdtC4MqVC9G_Dt-8" value="subscribe(&quot;showDice&quot;)" style="text;html=1;strokeColor=none;fillColor=none;align=center;verticalAlign=middle;whiteSpace=wrap;rounded=0;sketch=1;fontSize=12;rotation=43;" vertex="1" parent="LzuZ1PIDdem3-XbEVqTo-1">
          <mxGeometry x="525" y="-738" width="106" height="20" as="geometry" />
        </mxCell>
        <mxCell id="6jyc6iHdtC4MqVC9G_Dt-9" value="subscribe(&quot;showDice&quot;)" style="text;html=1;strokeColor=none;fillColor=none;align=center;verticalAlign=middle;whiteSpace=wrap;rounded=0;sketch=1;fontSize=12;rotation=303;" vertex="1" parent="LzuZ1PIDdem3-XbEVqTo-1">
          <mxGeometry x="490" y="-966" width="106" height="20" as="geometry" />
        </mxCell>
      </root>
    </mxGraphModel>
  </diagram>
</mxfile>
